<svg width="25" height="24" viewBox="0 0 25 24" fill="none" xmlns="http://www.w3.org/2000/svg">
<path d="M9.68757 21C10.3927 21.6224 11.3189 22 12.3334 22C13.3478 22 14.2741 21.6224 14.9792 21M18.3334 8C18.3334 6.4087 17.7013 4.88258 16.576 3.75736C15.4508 2.63214 13.9247 2 12.3334 2C10.7421 2 9.21597 2.63214 8.09075 3.75736C6.96553 4.88258 6.33339 6.4087 6.33339 8C6.33339 11.0902 5.55386 13.206 4.68306 14.6054C3.94852 15.7859 3.58125 16.3761 3.59472 16.5408C3.60963 16.7231 3.64825 16.7926 3.79517 16.9016C3.92785 17 4.52598 17 5.72225 17H18.9445C20.1408 17 20.7389 17 20.8716 16.9016C21.0185 16.7926 21.0572 16.7231 21.0721 16.5408C21.0855 16.3761 20.7183 15.7859 19.9837 14.6054C19.1129 13.206 18.3334 11.0902 18.3334 8Z" stroke="#334155" stroke-width="2" stroke-linecap="round" stroke-linejoin="round"/>
</svg>
